<svg version="1.1" id="Layer_1" xmlns="http://www.w3.org/2000/svg" xmlns:xlink="http://www.w3.org/1999/xlink" x="0px" y="0px"
	 width="100%" viewBox="0 0 625 162" enable-background="new 0 0 625 162" xml:space="preserve">
<path fill="#FEFEFF" opacity="1.000000" stroke="none" 
	d="
M454.000000,163.000000 
	C302.666656,163.000000 151.833328,163.000000 1.000000,163.000000 
	C1.000000,109.000000 1.000000,55.000000 1.000000,1.000000 
	C209.333328,1.000000 417.666656,1.000000 626.000000,1.000000 
	C626.000000,55.000000 626.000000,109.000000 626.000000,163.000000 
	C568.833313,163.000000 511.666656,163.000000 454.000000,163.000000 
M349.128601,85.799957 
	C346.548157,82.903214 343.967682,80.006462 341.433380,77.161522 
	C341.474670,77.151932 342.084564,77.058708 342.662781,76.868927 
	C352.939209,73.495911 357.738007,67.244774 357.137787,58.033382 
	C356.655334,50.629303 350.791962,44.429436 340.480408,43.709743 
	C325.401611,42.657322 310.209503,43.111778 295.066986,43.187428 
	C291.996643,43.202766 290.393585,44.895348 291.609070,48.634056 
	C292.464600,51.265656 292.745422,54.502327 292.054840,57.148300 
	C288.445648,70.976311 284.547028,84.732468 280.480774,98.433998 
	C279.772034,100.822128 277.774994,102.825752 276.384827,105.014526 
	C275.325134,106.682983 274.284210,108.363396 273.234924,110.038483 
	C275.163422,110.692802 277.086090,111.893883 279.021301,111.914413 
	C293.675537,112.069809 308.336639,112.195633 322.985565,111.873787 
	C327.725555,111.769638 332.651794,110.912247 337.114868,109.331917 
	C346.782318,105.908737 351.405701,96.788025 349.128601,85.799957 
M185.583694,112.948967 
	C197.640015,112.476280 204.205887,106.991615 202.546173,98.774178 
	C201.133530,99.308243 199.720901,99.842316 197.377960,100.728104 
	C197.894058,98.217278 198.101028,96.634872 198.550354,95.124573 
	C200.442749,88.763748 202.576813,82.470253 204.309219,76.067375 
	C207.548523,64.095009 199.475403,55.149250 187.424973,57.629448 
	C183.668869,58.402519 180.215744,60.688068 176.655960,62.349846 
	C175.603882,62.840977 174.661377,63.566814 173.281693,64.426109 
	C175.251511,58.051056 177.177032,52.462479 178.678864,46.762264 
	C179.957886,41.907722 178.146454,37.836586 173.858887,36.603302 
	C165.873383,34.306335 158.027985,35.515133 150.624985,39.110176 
	C148.016724,40.376789 147.769608,42.180656 149.968933,44.631546 
	C151.142181,45.938988 151.954391,48.582024 151.481720,50.199062 
	C146.501373,67.237473 141.290771,84.210030 135.950226,101.139725 
	C135.351181,103.038719 133.534332,104.544014 132.328537,106.264351 
	C131.455948,107.509338 130.660034,108.808090 129.829941,110.082870 
	C131.252197,110.719185 132.664261,111.877930 134.098404,111.905937 
	C142.583481,112.071648 151.076645,112.091629 159.559830,111.875481 
	C161.429901,111.827827 163.270691,110.630005 164.171906,110.305252 
	C163.346680,106.310898 161.744904,103.206665 162.355301,100.625618 
	C164.068176,93.382912 166.570389,86.312836 169.039047,79.272079 
	C169.716354,77.340408 171.065170,75.340767 172.677734,74.141060 
	C173.864990,73.257797 175.983124,73.625763 177.686447,73.436172 
	C177.836349,74.956139 178.487717,76.642815 178.047607,77.966629 
	C176.322418,83.155907 174.164581,88.199257 172.329132,93.354378 
	C168.166428,105.046021 172.377991,111.651825 185.583694,112.948967 
M29.924049,43.027409 
	C23.769049,43.747036 23.496964,44.410748 25.482409,49.972176 
	C26.151871,51.847408 26.085411,54.284969 25.547478,56.243671 
	C21.677496,70.334923 17.697321,84.398430 13.493673,98.393112 
	C12.775752,100.783211 10.834330,102.810623 9.431970,104.988731 
	C8.354311,106.662521 7.235538,108.309830 6.135043,109.968918 
	C8.042315,110.647560 9.942203,111.889030 11.858054,111.914169 
	C25.015718,112.086838 38.176723,112.004990 51.336655,112.005005 
	C67.805244,112.005028 67.899185,112.028641 71.935417,95.990150 
	C72.447540,93.955147 71.914780,89.939400 70.904488,89.585335 
	C68.574432,88.768784 65.352127,88.974594 63.056942,90.013817 
	C60.794373,91.038261 58.876003,93.363541 57.420872,95.530556 
	C52.816025,102.388214 46.383930,102.968033 38.899853,101.565132 
	C40.914951,94.357918 42.874882,87.348000 44.791519,80.492950 
	C48.761059,79.234314 50.802631,80.621468 52.525597,84.074341 
	C53.427025,85.880836 56.228931,87.992523 57.932076,87.803215 
	C59.741238,87.602104 61.927776,85.123024 62.774681,83.137558 
	C64.456650,79.194382 65.509819,74.946823 66.448227,70.741463 
	C66.795860,69.183594 66.665390,66.532990 65.730995,65.907585 
	C64.350197,64.983391 61.883057,64.884605 60.199631,65.428429 
	C58.419182,66.003601 57.142593,67.978813 55.414486,68.915535 
	C53.182602,70.125320 50.721165,70.911598 47.098759,72.396759 
	C49.246952,64.781715 50.895168,58.939007 52.572834,52.991920 
	C53.949608,52.991920 54.938080,52.998405 55.926449,52.990913 
	C65.613609,52.917484 65.405869,53.005142 69.285583,62.130795 
	C70.124977,64.105164 72.866425,65.998268 75.056839,66.494812 
	C78.093758,67.183235 80.330185,65.171547 81.111618,61.910667 
	C81.730522,59.328030 82.535072,56.790222 83.240463,54.227905 
	C85.531265,45.906757 83.426208,43.057003 74.815605,43.031902 
	C60.156563,42.989174 45.497307,43.020168 29.924049,43.027409 
M210.342010,82.086746 
	C207.947556,91.019455 207.178314,100.068535 215.213989,106.391586 
	C219.279846,109.590897 224.920700,111.516159 230.125854,112.412521 
	C251.276688,116.054787 270.316833,103.645966 274.611877,84.041718 
	C276.922882,73.493393 273.245239,64.220795 264.500916,60.379089 
	C246.028458,52.263435 218.571121,59.297691 210.342010,82.086746 
M485.348419,60.048210 
	C473.304779,52.095982 467.442474,61.877682 461.002411,69.297935 
	C458.321594,66.021309 456.378784,63.055275 453.869049,60.691071 
	C446.585510,53.829929 434.362854,57.153057 431.695618,66.551956 
	C430.350769,71.290833 431.885773,75.294815 435.624908,77.269737 
	C440.401184,79.792450 441.594452,75.817802 443.580841,73.091133 
	C447.080322,68.287468 450.665100,68.512604 453.915314,73.919678 
	C451.963318,75.138580 450.002808,76.359543 448.045502,77.585556 
	C440.434570,82.352844 432.554443,86.747925 425.291351,91.996719 
	C418.235046,97.096062 418.991669,104.925072 426.351471,109.579704 
	C433.773804,114.273888 442.577515,112.814522 448.141632,105.960907 
	C449.759094,103.968643 451.360046,101.962997 453.255676,99.606636 
	C454.535553,101.424286 455.457123,102.586769 456.222504,103.844299 
	C460.471527,110.825378 466.825043,113.171722 474.598541,111.955559 
	C480.312836,111.061569 484.333374,107.850746 486.073273,102.178246 
	C487.587280,97.242226 486.413605,92.915298 482.608948,89.478966 
	C478.802795,86.041344 476.845062,86.343231 473.690704,90.383553 
	C472.462952,91.956139 471.245941,93.563255 469.830048,94.957695 
	C466.314575,98.420029 463.455017,98.145470 459.584045,93.775528 
	C461.288452,92.706841 462.914856,91.659279 464.567841,90.655426 
	C471.108398,86.683327 477.847260,83.002670 484.152985,78.688332 
	C491.386444,73.739288 491.831818,67.049469 485.348419,60.048210 
M380.971252,109.721146 
	C382.960999,108.265190 384.950775,106.809235 386.929688,105.361206 
	C393.541199,112.548508 402.974487,114.354210 410.775665,109.989204 
	C416.341583,106.874901 418.496155,102.846390 417.051910,98.254272 
	C415.617645,98.619301 414.163940,98.989273 411.802399,99.590286 
	C412.399292,97.017494 412.747559,95.304398 413.196991,93.618286 
	C414.609314,88.320084 416.350220,83.090187 417.424103,77.725784 
	C418.871552,70.495522 415.942352,64.220169 409.348236,61.062550 
	C398.113403,55.682686 386.459412,55.691174 374.963562,60.175907 
	C372.557190,61.114666 370.377563,63.501926 368.905548,65.752792 
	C366.986908,68.686516 367.569824,72.024147 370.348083,74.309181 
	C374.454834,77.686882 379.244965,77.831017 384.031494,76.002129 
	C388.262970,74.385323 390.050323,71.014069 389.943420,66.543602 
	C389.926025,65.816544 390.184418,65.082909 390.341949,64.203545 
	C394.824768,65.000786 396.342133,67.401283 395.389008,71.404510 
	C394.889099,73.504234 394.210663,75.561012 393.690643,77.656487 
	C392.784973,81.305939 391.273529,82.583527 386.998596,81.471466 
	C378.711639,79.315712 370.192535,78.576424 362.270660,83.296982 
	C356.239197,86.891075 352.950745,94.431343 354.564911,100.841721 
	C356.350403,107.932442 361.734070,112.211502 369.646606,112.065376 
	C373.205414,111.999664 376.742737,110.768181 380.971252,109.721146 
M545.429504,60.872375 
	C540.628174,59.644470 535.884033,57.766071 531.012390,57.337208 
	C523.203979,56.649822 515.062256,56.718315 508.592773,61.906933 
	C506.304413,63.742256 504.184998,68.102821 504.808807,70.608276 
	C505.441437,73.149086 509.288605,75.982704 512.198853,76.657883 
	C520.865967,78.668617 525.151733,74.639496 526.481384,64.311699 
	C530.969299,64.720406 532.566040,67.240623 531.700684,71.450577 
	C531.267395,73.558434 530.451233,75.584656 529.935425,77.679131 
	C529.018921,81.400520 527.383667,82.560234 523.187073,81.464554 
	C515.240967,79.389931 507.059174,78.650673 499.360321,82.840408 
	C492.527802,86.558685 489.130920,94.192352 490.979797,101.406296 
	C492.698059,108.110641 498.445190,111.968086 506.479095,112.220200 
	C513.234680,112.432198 518.626709,109.585037 523.321289,105.108429 
	C528.799133,112.107864 537.694458,114.273781 545.487549,110.758629 
	C551.667542,107.971062 554.479309,103.581490 553.437134,98.169968 
	C552.003967,98.677620 550.588196,99.179100 548.191223,100.028130 
	C548.615417,97.634834 548.768921,96.077225 549.177551,94.589706 
	C550.497620,89.784683 552.060791,85.042313 553.255371,80.207855 
	C555.208374,72.304100 553.334961,65.709358 545.429504,60.872375 
M564.564087,89.035820 
	C564.322815,89.831276 564.143982,90.652298 563.830261,91.418106 
	C561.503296,97.098518 561.544128,103.748642 555.348145,107.799133 
	C552.578064,109.610046 555.418091,111.800957 557.688721,111.842148 
	C567.845703,112.026360 578.009338,111.963760 588.167236,111.791313 
	C589.182434,111.774071 590.549927,110.593750 591.033386,109.601967 
	C591.312500,109.029495 590.389954,107.380318 589.589355,106.858757 
	C586.406555,104.785210 586.539673,102.133301 587.553467,98.987640 
	C589.950867,91.549225 592.102295,84.030396 594.578186,76.619255 
	C595.152283,74.900780 596.626343,73.482933 597.686279,71.926758 
	C599.018982,73.226624 600.655029,74.332817 601.630737,75.860657 
	C605.385864,81.740936 610.369934,83.519585 615.949890,80.696259 
	C620.864441,78.209625 623.397278,71.297012 621.512573,65.514801 
	C619.641052,59.773369 613.352844,55.798885 607.226746,57.450661 
	C603.287415,58.512844 599.753967,61.080692 596.077148,62.954056 
	C595.104919,61.912613 593.949524,60.196175 592.371277,59.075047 
	C587.851807,55.864628 571.949097,57.494743 568.160400,61.604015 
	C567.405151,62.423096 567.046692,64.967445 567.573975,65.393356 
	C571.602661,68.647766 569.730042,72.257614 568.622742,75.876366 
	C567.357849,80.010300 566.094910,84.144836 564.564087,89.035820 
M84.506760,103.907471 
	C92.897781,112.551399 106.493088,114.902351 117.608742,109.631622 
	C125.910980,105.694939 130.322495,99.660660 129.510788,92.844086 
	C127.297798,93.662903 125.203407,94.534683 123.048843,95.216286 
	C117.309074,97.032112 111.314880,98.007240 106.607330,93.426308 
	C101.787468,88.736076 103.160324,82.616089 105.007149,77.032074 
	C105.852448,74.476280 107.658951,72.061996 109.552727,70.084602 
	C111.095787,68.473396 113.417519,67.607918 115.865143,66.126610 
	C115.865143,67.876038 115.873604,68.536201 115.863831,69.196106 
	C115.773987,75.262680 117.870979,78.400421 122.875977,79.681946 
	C128.276459,81.064735 133.740509,79.004662 135.860474,74.786484 
	C138.018417,70.492744 136.844559,65.399620 132.452698,61.902946 
	C130.422256,60.286366 127.912659,58.388439 125.531593,58.259789 
	C118.167549,57.861885 110.406441,56.846882 103.437668,58.603374 
	C83.124924,63.723228 73.533287,86.836563 84.506760,103.907471 
z"/>
<path fill="#6467F1" opacity="1.000000" stroke="none" 
	d="
M349.263611,86.176598 
	C351.405701,96.788025 346.782318,105.908737 337.114868,109.331917 
	C332.651794,110.912247 327.725555,111.769638 322.985565,111.873787 
	C308.336639,112.195633 293.675537,112.069809 279.021301,111.914413 
	C277.086090,111.893883 275.163422,110.692802 273.234924,110.038483 
	C274.284210,108.363396 275.325134,106.682983 276.384827,105.014526 
	C277.774994,102.825752 279.772034,100.822128 280.480774,98.433998 
	C284.547028,84.732468 288.445648,70.976311 292.054840,57.148300 
	C292.745422,54.502327 292.464600,51.265656 291.609070,48.634056 
	C290.393585,44.895348 291.996643,43.202766 295.066986,43.187428 
	C310.209503,43.111778 325.401611,42.657322 340.480408,43.709743 
	C350.791962,44.429436 356.655334,50.629303 357.137787,58.033382 
	C357.738007,67.244774 352.939209,73.495911 342.662781,76.868927 
	C342.084564,77.058708 341.474670,77.151932 341.433380,77.161522 
	C343.967682,80.006462 346.548157,82.903214 349.263611,86.176598 
M308.148346,92.649246 
	C307.333160,95.800217 306.517975,98.951187 305.696625,102.126022 
	C315.659210,104.074997 320.506683,100.626396 322.582306,90.612015 
	C323.378754,86.769356 322.850677,83.639450 318.440155,82.451103 
	C313.148285,81.025299 311.324036,82.023537 309.852570,87.130699 
	C309.394836,88.719299 308.873230,90.289497 308.148346,92.649246 
M319.650085,53.020000 
	C317.826935,59.102119 316.003754,65.184235 314.085449,71.583740 
	C319.757660,72.128128 325.024261,72.326385 327.309845,67.141151 
	C328.983978,63.343140 329.382568,58.694290 329.050079,54.528393 
	C328.978088,53.626472 323.347198,53.168247 319.650085,53.020000 
z"/>
<path fill="#030303" opacity="1.000000" stroke="none" 
	d="
M185.148926,112.945602 
	C172.377991,111.651825 168.166428,105.046021 172.329132,93.354378 
	C174.164581,88.199257 176.322418,83.155907 178.047607,77.966629 
	C178.487717,76.642815 177.836349,74.956139 177.686447,73.436172 
	C175.983124,73.625763 173.864990,73.257797 172.677734,74.141060 
	C171.065170,75.340767 169.716354,77.340408 169.039047,79.272079 
	C166.570389,86.312836 164.068176,93.382912 162.355301,100.625618 
	C161.744904,103.206665 163.346680,106.310898 164.171906,110.305252 
	C163.270691,110.630005 161.429901,111.827827 159.559830,111.875481 
	C151.076645,112.091629 142.583481,112.071648 134.098404,111.905937 
	C132.664261,111.877930 131.252197,110.719185 129.829941,110.082870 
	C130.660034,108.808090 131.455948,107.509338 132.328537,106.264351 
	C133.534332,104.544014 135.351181,103.038719 135.950226,101.139725 
	C141.290771,84.210030 146.501373,67.237473 151.481720,50.199062 
	C151.954391,48.582024 151.142181,45.938988 149.968933,44.631546 
	C147.769608,42.180656 148.016724,40.376789 150.624985,39.110176 
	C158.027985,35.515133 165.873383,34.306335 173.858887,36.603302 
	C178.146454,37.836586 179.957886,41.907722 178.678864,46.762264 
	C177.177032,52.462479 175.251511,58.051056 173.281693,64.426109 
	C174.661377,63.566814 175.603882,62.840977 176.655960,62.349846 
	C180.215744,60.688068 183.668869,58.402519 187.424973,57.629448 
	C199.475403,55.149250 207.548523,64.095009 204.309219,76.067375 
	C202.576813,82.470253 200.442749,88.763748 198.550354,95.124573 
	C198.101028,96.634872 197.894058,98.217278 197.377960,100.728104 
	C199.720901,99.842316 201.133530,99.308243 202.548798,98.774750 
	C204.205887,106.991615 197.640015,112.476280 185.148926,112.945602 
z"/>
<path fill="#030303" opacity="1.000000" stroke="none" 
	d="
M30.381096,43.023796 
	C45.497307,43.020168 60.156563,42.989174 74.815605,43.031902 
	C83.426208,43.057003 85.531265,45.906757 83.240463,54.227905 
	C82.535072,56.790222 81.730522,59.328030 81.111618,61.910667 
	C80.330185,65.171547 78.093758,67.183235 75.056839,66.494812 
	C72.866425,65.998268 70.124977,64.105164 69.285583,62.130795 
	C65.405869,53.005142 65.613609,52.917484 55.926449,52.990913 
	C54.938080,52.998405 53.949608,52.991920 52.572834,52.991920 
	C50.895168,58.939007 49.246952,64.781715 47.098759,72.396759 
	C50.721165,70.911598 53.182602,70.125320 55.414486,68.915535 
	C57.142593,67.978813 58.419182,66.003601 60.199631,65.428429 
	C61.883057,64.884605 64.350197,64.983391 65.730995,65.907585 
	C66.665390,66.532990 66.795860,69.183594 66.448227,70.741463 
	C65.509819,74.946823 64.456650,79.194382 62.774681,83.137558 
	C61.927776,85.123024 59.741238,87.602104 57.932076,87.803215 
	C56.228931,87.992523 53.427025,85.880836 52.525597,84.074341 
	C50.802631,80.621468 48.761059,79.234314 44.791519,80.492950 
	C42.874882,87.348000 40.914951,94.357918 38.899853,101.565132 
	C46.383930,102.968033 52.816025,102.388214 57.420872,95.530556 
	C58.876003,93.363541 60.794373,91.038261 63.056942,90.013817 
	C65.352127,88.974594 68.574432,88.768784 70.904488,89.585335 
	C71.914780,89.939400 72.447540,93.955147 71.935417,95.990150 
	C67.899185,112.028641 67.805244,112.005028 51.336655,112.005005 
	C38.176723,112.004990 25.015718,112.086838 11.858054,111.914169 
	C9.942203,111.889030 8.042315,110.647560 6.135045,109.968918 
	C7.235538,108.309830 8.354311,106.662521 9.431970,104.988731 
	C10.834330,102.810623 12.775752,100.783211 13.493673,98.393112 
	C17.697321,84.398430 21.677496,70.334923 25.547478,56.243671 
	C26.085411,54.284969 26.151871,51.847408 25.482409,49.972176 
	C23.496964,44.410748 23.769049,43.747036 30.381096,43.023796 
z"/>
<path fill="#030303" opacity="1.000000" stroke="none" 
	d="
M210.520386,81.728073 
	C218.571121,59.297691 246.028458,52.263435 264.500916,60.379089 
	C273.245239,64.220795 276.922882,73.493393 274.611877,84.041718 
	C270.316833,103.645966 251.276688,116.054787 230.125854,112.412521 
	C224.920700,111.516159 219.279846,109.590897 215.213989,106.391586 
	C207.178314,100.068535 207.947556,91.019455 210.520386,81.728073 
M242.004150,98.357979 
	C244.682281,89.315460 247.458817,80.299599 249.924576,71.199532 
	C250.265472,69.941475 249.068634,68.266754 248.583679,66.784935 
	C247.037964,67.464523 244.778091,67.709915 244.059250,68.892242 
	C238.192047,78.542267 235.141617,89.183250 233.999741,100.364830 
	C233.890350,101.435928 234.840149,103.473366 235.526825,103.579185 
	C236.750397,103.767769 238.339890,103.079437 239.418213,102.276726 
	C240.424011,101.527992 240.964142,100.153717 242.004150,98.357979 
z"/>
<path fill="#6669F1" opacity="1.000000" stroke="none" 
	d="
M485.639954,60.285011 
	C491.831818,67.049469 491.386444,73.739288 484.152985,78.688332 
	C477.847260,83.002670 471.108398,86.683327 464.567841,90.655426 
	C462.914856,91.659279 461.288452,92.706841 459.584045,93.775528 
	C463.455017,98.145470 466.314575,98.420029 469.830048,94.957695 
	C471.245941,93.563255 472.462952,91.956139 473.690704,90.383553 
	C476.845062,86.343231 478.802795,86.041344 482.608948,89.478966 
	C486.413605,92.915298 487.587280,97.242226 486.073273,102.178246 
	C484.333374,107.850746 480.312836,111.061569 474.598541,111.955559 
	C466.825043,113.171722 460.471527,110.825378 456.222504,103.844299 
	C455.457123,102.586769 454.535553,101.424286 453.255676,99.606636 
	C451.360046,101.962997 449.759094,103.968643 448.141632,105.960907 
	C442.577515,112.814522 433.773804,114.273888 426.351471,109.579704 
	C418.991669,104.925072 418.235046,97.096062 425.291351,91.996719 
	C432.554443,86.747925 440.434570,82.352844 448.045502,77.585556 
	C450.002808,76.359543 451.963318,75.138580 453.915314,73.919678 
	C450.665100,68.512604 447.080322,68.287468 443.580841,73.091133 
	C441.594452,75.817802 440.401184,79.792450 435.624908,77.269737 
	C431.885773,75.294815 430.350769,71.290833 431.695618,66.551956 
	C434.362854,57.153057 446.585510,53.829929 453.869049,60.691071 
	C456.378784,63.055275 458.321594,66.021309 461.002411,69.297935 
	C467.442474,61.877682 473.304779,52.095982 485.639954,60.285011 
z"/>
<path fill="#6669F1" opacity="1.000000" stroke="none" 
	d="
M380.630524,109.893402 
	C376.742737,110.768181 373.205414,111.999664 369.646606,112.065376 
	C361.734070,112.211502 356.350403,107.932442 354.564911,100.841721 
	C352.950745,94.431343 356.239197,86.891075 362.270660,83.296982 
	C370.192535,78.576424 378.711639,79.315712 386.998596,81.471466 
	C391.273529,82.583527 392.784973,81.305939 393.690643,77.656487 
	C394.210663,75.561012 394.889099,73.504234 395.389008,71.404510 
	C396.342133,67.401283 394.824768,65.000786 390.341949,64.203545 
	C390.184418,65.082909 389.926025,65.816544 389.943420,66.543602 
	C390.050323,71.014069 388.262970,74.385323 384.031494,76.002129 
	C379.244965,77.831017 374.454834,77.686882 370.348083,74.309181 
	C367.569824,72.024147 366.986908,68.686516 368.905548,65.752792 
	C370.377563,63.501926 372.557190,61.114666 374.963562,60.175907 
	C386.459412,55.691174 398.113403,55.682686 409.348236,61.062550 
	C415.942352,64.220169 418.871552,70.495522 417.424103,77.725784 
	C416.350220,83.090187 414.609314,88.320084 413.196991,93.618286 
	C412.747559,95.304398 412.399292,97.017494 411.802399,99.590286 
	C414.163940,98.989273 415.617645,98.619301 417.051910,98.254272 
	C418.496155,102.846390 416.341583,106.874901 410.775665,109.989204 
	C402.974487,114.354210 393.541199,112.548508 386.929688,105.361206 
	C384.950775,106.809235 382.960999,108.265190 380.630524,109.893402 
M388.275330,92.548431 
	C388.518951,91.487450 388.762543,90.426468 389.116455,88.885162 
	C387.212341,88.885162 385.215546,88.279335 384.395111,89.004486 
	C382.346619,90.815041 380.581116,93.094154 379.280212,95.498116 
	C378.953796,96.101273 380.807556,97.884239 381.659393,99.125000 
	C383.622223,97.661072 385.609619,96.227982 387.524323,94.703644 
	C387.853424,94.441635 387.873413,93.791336 388.275330,92.548431 
z"/>
<path fill="#6568F1" opacity="1.000000" stroke="none" 
	d="
M545.769165,61.032188 
	C553.334961,65.709358 555.208374,72.304100 553.255371,80.207855 
	C552.060791,85.042313 550.497620,89.784683 549.177551,94.589706 
	C548.768921,96.077225 548.615417,97.634834 548.191223,100.028130 
	C550.588196,99.179100 552.003967,98.677620 553.437134,98.169968 
	C554.479309,103.581490 551.667542,107.971062 545.487549,110.758629 
	C537.694458,114.273781 528.799133,112.107864 523.321289,105.108429 
	C518.626709,109.585037 513.234680,112.432198 506.479095,112.220200 
	C498.445190,111.968086 492.698059,108.110641 490.979797,101.406296 
	C489.130920,94.192352 492.527802,86.558685 499.360321,82.840408 
	C507.059174,78.650673 515.240967,79.389931 523.187073,81.464554 
	C527.383667,82.560234 529.018921,81.400520 529.935425,77.679131 
	C530.451233,75.584656 531.267395,73.558434 531.700684,71.450577 
	C532.566040,67.240623 530.969299,64.720406 526.481384,64.311699 
	C525.151733,74.639496 520.865967,78.668617 512.198853,76.657883 
	C509.288605,75.982704 505.441437,73.149086 504.808807,70.608276 
	C504.184998,68.102821 506.304413,63.742256 508.592773,61.906933 
	C515.062256,56.718315 523.203979,56.649822 531.012390,57.337208 
	C535.884033,57.766071 540.628174,59.644470 545.769165,61.032188 
M519.273682,99.092094 
	C524.151489,97.535576 524.284607,93.310028 525.158630,89.276787 
	C520.519653,88.065933 517.282043,89.101578 515.809692,93.591660 
	C514.952515,96.205582 514.938232,98.592369 519.273682,99.092094 
z"/>
<path fill="#6568F1" opacity="1.000000" stroke="none" 
	d="
M564.697632,88.657471 
	C566.094910,84.144836 567.357849,80.010300 568.622742,75.876366 
	C569.730042,72.257614 571.602661,68.647766 567.573975,65.393356 
	C567.046692,64.967445 567.405151,62.423096 568.160400,61.604015 
	C571.949097,57.494743 587.851807,55.864628 592.371277,59.075047 
	C593.949524,60.196175 595.104919,61.912613 596.077148,62.954056 
	C599.753967,61.080692 603.287415,58.512844 607.226746,57.450661 
	C613.352844,55.798885 619.641052,59.773369 621.512573,65.514801 
	C623.397278,71.297012 620.864441,78.209625 615.949890,80.696259 
	C610.369934,83.519585 605.385864,81.740936 601.630737,75.860657 
	C600.655029,74.332817 599.018982,73.226624 597.686279,71.926758 
	C596.626343,73.482933 595.152283,74.900780 594.578186,76.619255 
	C592.102295,84.030396 589.950867,91.549225 587.553467,98.987640 
	C586.539673,102.133301 586.406555,104.785210 589.589355,106.858757 
	C590.389954,107.380318 591.312500,109.029495 591.033386,109.601967 
	C590.549927,110.593750 589.182434,111.774071 588.167236,111.791313 
	C578.009338,111.963760 567.845703,112.026360 557.688721,111.842148 
	C555.418091,111.800957 552.578064,109.610046 555.348145,107.799133 
	C561.544128,103.748642 561.503296,97.098518 563.830261,91.418106 
	C564.143982,90.652298 564.322815,89.831276 564.697632,88.657471 
z"/>
<path fill="#040404" opacity="1.000000" stroke="none" 
	d="
M84.283279,103.618980 
	C73.533287,86.836563 83.124924,63.723228 103.437668,58.603374 
	C110.406441,56.846882 118.167549,57.861885 125.531593,58.259789 
	C127.912659,58.388439 130.422256,60.286366 132.452698,61.902946 
	C136.844559,65.399620 138.018417,70.492744 135.860474,74.786484 
	C133.740509,79.004662 128.276459,81.064735 122.875977,79.681946 
	C117.870979,78.400421 115.773987,75.262680 115.863831,69.196106 
	C115.873604,68.536201 115.865143,67.876038 115.865143,66.126610 
	C113.417519,67.607918 111.095787,68.473396 109.552727,70.084602 
	C107.658951,72.061996 105.852448,74.476280 105.007149,77.032074 
	C103.160324,82.616089 101.787468,88.736076 106.607330,93.426308 
	C111.314880,98.007240 117.309074,97.032112 123.048843,95.216286 
	C125.203407,94.534683 127.297798,93.662903 129.510788,92.844086 
	C130.322495,99.660660 125.910980,105.694939 117.608742,109.631622 
	C106.493088,114.902351 92.897781,112.551399 84.283279,103.618980 
z"/>
<path fill="#F9F9FE" opacity="1.000000" stroke="none" 
	d="
M308.264587,92.258682 
	C308.873230,90.289497 309.394836,88.719299 309.852570,87.130699 
	C311.324036,82.023537 313.148285,81.025299 318.440155,82.451103 
	C322.850677,83.639450 323.378754,86.769356 322.582306,90.612015 
	C320.506683,100.626396 315.659210,104.074997 305.696625,102.126022 
	C306.517975,98.951187 307.333160,95.800217 308.264587,92.258682 
z"/>
<path fill="#F8F8FE" opacity="1.000000" stroke="none" 
	d="
M319.963409,52.762829 
	C323.347198,53.168247 328.978088,53.626472 329.050079,54.528393 
	C329.382568,58.694290 328.983978,63.343140 327.309845,67.141151 
	C325.024261,72.326385 319.757660,72.128128 314.085449,71.583740 
	C316.003754,65.184235 317.826935,59.102119 319.963409,52.762829 
z"/>
<path fill="#F7F7F7" opacity="1.000000" stroke="none" 
	d="
M241.856689,98.706390 
	C240.964142,100.153717 240.424011,101.527992 239.418213,102.276726 
	C238.339890,103.079437 236.750397,103.767769 235.526825,103.579185 
	C234.840149,103.473366 233.890350,101.435928 233.999741,100.364830 
	C235.141617,89.183250 238.192047,78.542267 244.059250,68.892242 
	C244.778091,67.709915 247.037964,67.464523 248.583679,66.784927 
	C249.068634,68.266754 250.265472,69.941475 249.924576,71.199532 
	C247.458817,80.299599 244.682281,89.315460 241.856689,98.706390 
z"/>
<path fill="#F6F6FE" opacity="1.000000" stroke="none" 
	d="
M388.155762,92.934418 
	C387.873413,93.791336 387.853424,94.441635 387.524323,94.703644 
	C385.609619,96.227982 383.622223,97.661072 381.659393,99.125000 
	C380.807556,97.884239 378.953796,96.101273 379.280212,95.498116 
	C380.581116,93.094154 382.346619,90.815041 384.395111,89.004486 
	C385.215546,88.279335 387.212341,88.885162 389.116455,88.885162 
	C388.762543,90.426468 388.518951,91.487450 388.155762,92.934418 
z"/>
<path fill="#F9F9FE" opacity="1.000000" stroke="none" 
	d="
M518.884155,99.128601 
	C514.938232,98.592369 514.952515,96.205582 515.809692,93.591660 
	C517.282043,89.101578 520.519653,88.065933 525.158630,89.276787 
	C524.284607,93.310028 524.151489,97.535576 518.884155,99.128601 
z"/>
</svg>