<svg version="1.1" id="Layer_1" xmlns="http://www.w3.org/2000/svg" xmlns:xlink="http://www.w3.org/1999/xlink" x="0px" y="0px"
	 width="100%" viewBox="0 0 625 162" enable-background="new 0 0 625 162" xml:space="preserve">
<path fill="#FEFEFE" opacity="1.000000" stroke="none" 
	d="
M454.000000,163.000000 
	C302.666656,163.000000 151.833328,163.000000 1.000000,163.000000 
	C1.000000,109.000000 1.000000,55.000000 1.000000,1.000000 
	C209.333328,1.000000 417.666656,1.000000 626.000000,1.000000 
	C626.000000,55.000000 626.000000,109.000000 626.000000,163.000000 
	C568.833313,163.000000 511.666656,163.000000 454.000000,163.000000 
M349.134766,85.797714 
	C346.551788,82.901756 343.968811,80.005798 341.536621,77.278931 
	C343.197906,76.619835 345.566315,75.912529 347.713867,74.784698 
	C354.207611,71.374313 357.519501,65.992462 357.186920,58.554306 
	C356.866577,51.389515 352.343384,47.546825 346.271698,45.082928 
	C344.286102,44.277164 342.120789,43.479115 340.026001,43.447384 
	C325.040039,43.220371 310.049896,43.061859 295.063965,43.197952 
	C291.577423,43.229610 290.211639,45.276173 291.833893,49.070915 
	C292.727844,51.162098 292.972260,53.985947 292.387360,56.180408 
	C288.619629,70.316841 284.641724,84.400368 280.469452,98.422882 
	C279.758453,100.812286 277.776733,102.822815 276.386200,105.011040 
	C275.323700,106.683090 274.267792,108.359329 273.208923,110.033699 
	C275.134644,110.689774 277.054413,111.893608 278.987030,111.914619 
	C293.481201,112.072220 307.980988,112.164597 322.471954,111.895531 
	C327.071075,111.810143 331.824615,111.123741 336.200775,109.741455 
	C346.364777,106.530983 351.448853,97.165588 349.134766,85.797714 
M185.583694,112.948914 
	C197.640884,112.476006 204.207809,106.990211 202.546936,98.773796 
	C201.131897,99.308762 199.716858,99.843719 197.315613,100.751526 
	C197.940567,98.050621 198.246613,96.328514 198.740952,94.662277 
	C200.628830,88.299011 202.792343,82.009468 204.455917,75.589516 
	C207.415390,64.168610 199.425919,55.312096 187.909653,57.528797 
	C183.991943,58.282890 180.376312,60.651207 176.655075,62.352840 
	C175.599655,62.835457 174.658630,63.568249 173.281082,64.425240 
	C175.250259,58.053795 177.175491,52.466198 178.677917,46.767136 
	C179.958145,41.910851 178.150330,37.841190 173.862885,36.605522 
	C165.877533,34.304092 158.032379,35.516106 150.628479,39.108189 
	C148.023056,40.372231 147.763809,42.175014 149.966476,44.628708 
	C151.140381,45.936382 151.955643,48.579166 151.483139,50.195637 
	C146.502731,67.234398 141.291702,84.207199 135.950958,101.137199 
	C135.351837,103.036392 133.536331,104.542473 132.330475,106.262802 
	C131.457657,107.508018 130.660294,108.806114 129.829269,110.080620 
	C131.251038,110.717659 132.662582,111.877724 134.096252,111.905754 
	C142.581497,112.071655 151.074829,112.091545 159.558182,111.875549 
	C161.428619,111.827927 163.269791,110.630844 164.172714,110.305740 
	C163.347092,106.312126 161.744614,103.207817 162.354965,100.626778 
	C164.067688,93.383888 166.570038,86.313698 169.038589,79.272728 
	C169.715958,77.340675 171.063919,75.339989 172.676575,74.140251 
	C173.865265,73.255936 175.984741,73.622765 177.689484,73.432106 
	C177.838562,74.953102 178.488754,76.640701 178.048248,77.965683 
	C176.322937,83.155060 174.164978,88.198502 172.329422,93.353729 
	C168.166412,105.045769 172.377762,111.651634 185.583694,112.948914 
M29.924072,43.027462 
	C23.769024,43.747154 23.497116,44.410618 25.482565,49.972301 
	C26.152004,51.847546 26.085442,54.285091 25.547503,56.243813 
	C21.677517,70.335052 17.697357,84.398544 13.493713,98.393219 
	C12.775794,100.783302 10.834342,102.810692 9.431983,104.988808 
	C8.354333,106.662582 7.235602,108.309914 6.135142,109.969002 
	C8.042448,110.647598 9.942369,111.888992 11.858252,111.914131 
	C25.015902,112.086800 38.176895,112.004921 51.336811,112.004951 
	C67.805862,112.004982 67.899834,112.028603 71.935478,95.989929 
	C72.447739,93.954094 71.914726,89.936012 70.905350,89.582993 
	C68.574005,88.767632 65.351791,88.974579 63.056023,90.014458 
	C60.793404,91.039314 58.873104,93.363739 57.420219,95.531853 
	C52.817894,102.399834 46.386055,102.976929 38.900261,101.562798 
	C40.915146,94.356796 42.875164,87.347038 44.791676,80.492859 
	C48.762939,79.233734 50.803246,80.623505 52.526215,84.075325 
	C53.427811,85.881592 56.230286,87.992798 57.933231,87.803040 
	C59.742424,87.601448 61.928024,85.121925 62.774944,83.136269 
	C64.456802,79.193024 65.510246,74.945572 66.448570,70.740204 
	C66.796135,69.182518 66.664551,66.531715 65.730049,65.906723 
	C64.348877,64.983002 61.881924,64.885139 60.198475,65.429260 
	C58.418022,66.004738 57.141525,67.979912 55.413372,68.916466 
	C53.181553,70.125977 50.720055,70.911690 47.099140,72.395569 
	C49.247143,64.780235 50.895523,58.936214 52.572205,52.991859 
	C53.948338,52.991859 54.937401,52.998318 55.926353,52.990860 
	C65.613976,52.917801 65.406227,53.005455 69.285568,62.130558 
	C70.124939,64.104950 72.866295,65.998131 75.056694,66.494720 
	C78.093582,67.183220 80.330078,65.171616 81.111526,61.910717 
	C81.730438,59.328083 82.534981,56.790276 83.240372,54.227959 
	C85.531181,45.906765 83.426186,43.057056 74.815575,43.031956 
	C60.156551,42.989223 45.497311,43.020222 29.924072,43.027462 
M214.827469,73.387642 
	C213.033096,77.463676 210.599609,81.384064 209.562103,85.644409 
	C206.218353,99.374992 213.342789,109.682312 227.310364,112.080696 
	C228.294724,112.249733 229.274139,112.450409 230.261581,112.598213 
	C251.312164,115.749199 270.057312,103.776169 274.516174,84.336853 
	C277.446930,71.559776 271.984283,61.577251 259.623810,58.694210 
	C242.207306,54.631870 226.963272,58.467178 214.827469,73.387642 
M485.921814,60.514355 
	C473.813538,51.864559 467.628387,61.345921 461.066284,69.375374 
	C458.446869,66.166374 456.502899,63.238804 454.031250,60.859379 
	C446.640167,53.744114 434.126068,57.156269 431.609222,66.826744 
	C430.389679,71.512589 432.106506,75.592339 435.891968,77.416771 
	C440.454681,79.615814 441.587341,75.864754 443.462189,73.255798 
	C447.011719,68.316429 450.075623,68.385452 454.177795,73.742447 
	C450.779633,75.850937 447.398865,77.926697 444.040100,80.037376 
	C437.701874,84.020355 431.089661,87.641457 425.121246,92.119263 
	C418.352661,97.197380 419.060760,104.823097 426.133820,109.437935 
	C433.519135,114.256485 442.382568,112.923981 447.976410,106.139931 
	C449.631165,104.133072 451.250793,102.097282 453.210632,99.674019 
	C455.054718,102.220909 456.411224,104.271416 457.944550,106.179825 
	C463.110992,112.610008 473.088470,114.292740 480.108887,109.984375 
	C487.624176,105.372284 488.931702,94.929321 482.674377,89.494179 
	C478.799591,86.128517 476.853882,86.329559 473.721405,90.328407 
	C472.388062,92.030487 471.090515,93.799217 469.529510,95.276413 
	C466.067230,98.552711 462.781586,98.002708 459.728027,93.642113 
	C467.824677,88.719086 476.082336,84.064011 483.941406,78.812363 
	C491.185394,73.971741 491.826569,67.717789 485.921814,60.514355 
M359.673523,108.943825 
	C368.568817,114.458290 376.084351,113.491966 387.015045,105.428337 
	C393.504242,112.617279 402.879181,114.419701 410.750763,109.991730 
	C416.331451,106.852455 418.454285,102.933556 417.110809,98.177521 
	C415.685730,98.634109 414.259857,99.090965 411.813477,99.874779 
	C412.378204,97.265564 412.676727,95.560272 413.121063,93.893875 
	C414.490448,88.758301 416.220367,83.697983 417.250549,78.497559 
	C418.980164,69.766495 415.539276,63.327129 407.375275,60.073311 
	C397.253082,56.039024 386.861511,56.126320 376.566406,59.404064 
	C374.293610,60.127674 372.050262,61.691154 370.386078,63.433907 
	C366.009277,68.017365 367.582184,73.915894 373.517517,76.168121 
	C382.577118,79.605873 389.004181,75.128212 390.319153,64.462616 
	C397.172852,65.956352 397.531036,72.059326 391.590607,81.694229 
	C385.122833,81.133728 378.845428,79.999840 372.610596,80.198936 
	C364.842194,80.446999 358.410217,83.839722 355.363708,91.611443 
	C352.864258,97.987701 354.074982,103.691246 359.673523,108.943825 
M522.044983,57.381992 
	C517.371216,58.929211 512.273865,59.788750 508.194641,62.301254 
	C506.014374,63.644142 504.160187,68.196106 504.773621,70.644791 
	C505.392395,73.114975 508.959045,75.846367 511.736145,76.590889 
	C520.463989,78.930740 525.194153,74.705200 526.652405,62.786415 
	C528.864685,65.195045 531.748230,66.963684 531.603760,68.435059 
	C531.175171,72.800713 530.007202,77.274353 528.068909,81.180016 
	C527.603638,82.117485 523.026611,81.049828 520.346191,80.833969 
	C519.356201,80.754242 518.390259,80.394440 517.400024,80.294563 
	C511.026001,79.651634 504.736908,79.654022 498.954803,83.022987 
	C492.415283,86.833267 489.131592,94.366867 490.953186,101.358475 
	C492.706635,108.088387 498.446228,112.001213 506.439331,112.234261 
	C513.210327,112.431671 518.662964,109.662834 523.308105,105.015297 
	C528.453491,111.781639 536.126709,114.035507 543.982178,111.309677 
	C550.163147,109.164894 554.081848,104.682526 554.061646,99.702324 
	C554.059387,99.142769 553.727173,98.584549 553.522461,97.946114 
	C551.871155,98.657715 550.602966,99.204224 548.305847,100.194145 
	C548.710876,97.623680 548.827148,95.917618 549.263489,94.297768 
	C550.603577,89.322380 552.308777,84.434128 553.428894,79.413139 
	C555.531250,69.989365 551.799988,62.507580 542.567078,59.814526 
	C536.309998,57.989460 529.500549,58.058552 522.044983,57.381992 
M620.107117,62.649849 
	C613.269958,54.867260 605.568481,55.209316 596.912720,63.348129 
	C594.749756,61.556210 592.912109,59.017662 590.500549,58.224720 
	C582.981506,55.752396 575.701904,57.676369 568.832031,61.028625 
	C566.473022,62.179764 566.442383,63.940243 568.046509,66.362846 
	C569.214294,68.126564 569.881653,70.994087 569.343323,72.982773 
	C566.870178,82.120110 564.044983,91.172569 560.997559,100.137009 
	C560.199829,102.483612 558.128601,104.389412 556.688110,106.528572 
	C555.931335,107.652321 555.273926,108.842972 554.571655,110.003395 
	C555.660217,110.650810 556.741089,111.844879 557.838501,111.860329 
	C567.826904,112.000938 577.819031,111.994514 587.807434,111.848946 
	C588.912292,111.832855 590.524963,110.907753 590.930176,109.979874 
	C591.253174,109.240082 590.394226,107.401810 589.539795,106.834106 
	C586.352722,104.716515 586.562683,102.095200 587.574646,98.959541 
	C589.973328,91.526955 592.103943,84.006920 594.568237,76.597168 
	C595.140381,74.876877 596.612793,73.456024 597.670959,71.897354 
	C599.005554,73.192406 600.645874,74.292389 601.619080,75.817955 
	C604.956116,81.048866 608.529419,82.893776 613.557556,81.583755 
	C618.559509,80.280563 621.872620,76.176521 621.918457,70.520309 
	C621.937866,68.114861 621.031250,65.701897 620.107117,62.649849 
M108.088890,94.794228 
	C101.088287,88.456253 102.365997,75.155411 110.650230,69.068069 
	C112.102737,68.000748 113.896080,67.397255 115.863075,66.414062 
	C115.863075,67.902954 115.871269,68.564339 115.861794,69.225479 
	C115.775383,75.258148 117.920898,78.440842 122.925674,79.697914 
	C128.328735,81.055031 133.801956,78.951073 135.888092,74.715034 
	C138.018021,70.390068 136.769623,65.377457 132.392258,61.817421 
	C130.747025,60.479385 128.797882,59.001305 126.814537,58.690872 
	C121.282303,57.824966 115.602684,56.758087 110.083069,57.161976 
	C91.239838,58.540810 78.164215,73.843590 80.195969,92.486320 
	C80.695168,97.066879 83.192696,102.239532 86.402878,105.565361 
	C96.702980,116.236542 118.734642,113.994568 127.251472,101.834633 
	C128.907761,99.469856 129.517944,96.372383 130.610657,93.612877 
	C122.766357,95.444908 116.100700,98.445953 108.088890,94.794228 
z"/>
<path fill="#07BFCD" opacity="1.000000" stroke="none" 
	d="
M349.273987,86.173157 
	C351.448853,97.165588 346.364777,106.530983 336.200775,109.741455 
	C331.824615,111.123741 327.071075,111.810143 322.471954,111.895531 
	C307.980988,112.164597 293.481201,112.072220 278.987030,111.914619 
	C277.054413,111.893608 275.134644,110.689774 273.208923,110.033707 
	C274.267792,108.359329 275.323700,106.683090 276.386200,105.011040 
	C277.776733,102.822815 279.758453,100.812286 280.469452,98.422882 
	C284.641724,84.400368 288.619629,70.316841 292.387360,56.180408 
	C292.972260,53.985947 292.727844,51.162098 291.833893,49.070915 
	C290.211639,45.276173 291.577423,43.229610 295.063965,43.197952 
	C310.049896,43.061859 325.040039,43.220371 340.026001,43.447384 
	C342.120789,43.479115 344.286102,44.277164 346.271698,45.082928 
	C352.343384,47.546825 356.866577,51.389515 357.186920,58.554306 
	C357.519501,65.992462 354.207611,71.374313 347.713867,74.784698 
	C345.566315,75.912529 343.197906,76.619835 341.536621,77.278931 
	C343.968811,80.005798 346.551788,82.901756 349.273987,86.173157 
M318.333344,99.909981 
	C319.850433,96.125320 321.966827,92.438538 322.608307,88.510857 
	C322.889801,86.787209 320.553833,83.555489 318.701752,82.844925 
	C316.520416,82.008026 311.758392,82.403831 311.267059,83.580818 
	C308.778229,89.542694 307.312683,95.931740 305.488434,102.171051 
	C305.899261,102.623459 306.310120,103.075874 306.720947,103.528282 
	C310.405762,102.494293 314.090576,101.460304 318.333344,99.909981 
M328.691864,65.024376 
	C329.208679,62.290894 330.389709,59.458549 330.002899,56.859558 
	C329.755402,55.196831 327.406342,53.126884 325.607544,52.614025 
	C323.743591,52.082607 319.927856,52.645844 319.523102,53.706352 
	C317.339752,59.426846 315.951233,65.450706 314.253418,71.494949 
	C322.853241,72.183914 325.007660,71.231445 328.691864,65.024376 
z"/>
<path fill="#030303" opacity="1.000000" stroke="none" 
	d="
M185.148926,112.945541 
	C172.377762,111.651634 168.166412,105.045769 172.329422,93.353729 
	C174.164978,88.198502 176.322937,83.155060 178.048248,77.965683 
	C178.488754,76.640701 177.838562,74.953102 177.689484,73.432114 
	C175.984741,73.622765 173.865265,73.255936 172.676575,74.140251 
	C171.063919,75.339989 169.715958,77.340675 169.038589,79.272728 
	C166.570038,86.313698 164.067688,93.383888 162.354965,100.626778 
	C161.744614,103.207817 163.347092,106.312126 164.172714,110.305740 
	C163.269791,110.630844 161.428619,111.827927 159.558182,111.875549 
	C151.074829,112.091545 142.581497,112.071655 134.096252,111.905754 
	C132.662582,111.877724 131.251038,110.717659 129.829269,110.080620 
	C130.660294,108.806114 131.457657,107.508018 132.330475,106.262802 
	C133.536331,104.542473 135.351837,103.036392 135.950958,101.137199 
	C141.291702,84.207199 146.502731,67.234398 151.483139,50.195637 
	C151.955643,48.579166 151.140381,45.936382 149.966476,44.628708 
	C147.763809,42.175014 148.023056,40.372231 150.628479,39.108189 
	C158.032379,35.516106 165.877533,34.304092 173.862885,36.605522 
	C178.150330,37.841190 179.958145,41.910851 178.677917,46.767136 
	C177.175491,52.466198 175.250259,58.053795 173.281082,64.425240 
	C174.658630,63.568249 175.599655,62.835457 176.655075,62.352840 
	C180.376312,60.651207 183.991943,58.282890 187.909653,57.528797 
	C199.425919,55.312096 207.415390,64.168610 204.455917,75.589516 
	C202.792343,82.009468 200.628830,88.299011 198.740952,94.662277 
	C198.246613,96.328514 197.940567,98.050621 197.315613,100.751526 
	C199.716858,99.843719 201.131897,99.308762 202.548660,98.774643 
	C204.207809,106.990211 197.640884,112.476006 185.148926,112.945541 
z"/>
<path fill="#030303" opacity="1.000000" stroke="none" 
	d="
M30.381119,43.023849 
	C45.497311,43.020222 60.156551,42.989223 74.815575,43.031956 
	C83.426186,43.057056 85.531181,45.906765 83.240372,54.227959 
	C82.534981,56.790276 81.730438,59.328083 81.111526,61.910717 
	C80.330078,65.171616 78.093582,67.183220 75.056694,66.494720 
	C72.866295,65.998131 70.124939,64.104950 69.285568,62.130558 
	C65.406227,53.005455 65.613976,52.917801 55.926353,52.990860 
	C54.937401,52.998318 53.948338,52.991859 52.572205,52.991859 
	C50.895523,58.936214 49.247143,64.780235 47.099140,72.395569 
	C50.720055,70.911690 53.181553,70.125977 55.413372,68.916466 
	C57.141525,67.979912 58.418022,66.004738 60.198475,65.429260 
	C61.881924,64.885139 64.348877,64.983002 65.730049,65.906723 
	C66.664551,66.531715 66.796135,69.182518 66.448570,70.740204 
	C65.510246,74.945572 64.456802,79.193024 62.774944,83.136269 
	C61.928024,85.121925 59.742424,87.601448 57.933231,87.803040 
	C56.230286,87.992798 53.427811,85.881592 52.526215,84.075325 
	C50.803246,80.623505 48.762939,79.233734 44.791676,80.492859 
	C42.875164,87.347038 40.915146,94.356796 38.900261,101.562798 
	C46.386055,102.976929 52.817894,102.399834 57.420219,95.531853 
	C58.873104,93.363739 60.793404,91.039314 63.056023,90.014458 
	C65.351791,88.974579 68.574005,88.767632 70.905350,89.582993 
	C71.914726,89.936012 72.447739,93.954094 71.935478,95.989929 
	C67.899834,112.028603 67.805862,112.004982 51.336811,112.004951 
	C38.176895,112.004921 25.015902,112.086800 11.858252,111.914131 
	C9.942369,111.888992 8.042448,110.647598 6.135141,109.969002 
	C7.235602,108.309914 8.354333,106.662582 9.431983,104.988808 
	C10.834342,102.810692 12.775794,100.783302 13.493713,98.393219 
	C17.697357,84.398544 21.677517,70.335052 25.547503,56.243813 
	C26.085442,54.285091 26.152004,51.847546 25.482565,49.972301 
	C23.497116,44.410618 23.769024,43.747154 30.381119,43.023849 
z"/>
<path fill="#030303" opacity="1.000000" stroke="none" 
	d="
M215.016907,73.080856 
	C226.963272,58.467178 242.207306,54.631870 259.623810,58.694210 
	C271.984283,61.577251 277.446930,71.559776 274.516174,84.336853 
	C270.057312,103.776169 251.312164,115.749199 230.261581,112.598213 
	C229.274139,112.450409 228.294724,112.249733 227.310364,112.080696 
	C213.342789,109.682312 206.218353,99.374992 209.562103,85.644409 
	C210.599609,81.384064 213.033096,77.463676 215.016907,73.080856 
M240.544632,100.994080 
	C243.692719,91.414169 246.989365,81.878029 249.837875,72.209862 
	C250.295303,70.657310 248.751419,68.515114 248.132690,66.645493 
	C246.453049,67.769928 243.795578,68.547417 243.253403,70.075447 
	C239.885574,79.567093 236.880676,89.194656 234.067535,98.867920 
	C233.667999,100.241753 234.965195,102.109024 235.477081,103.747925 
	C237.013519,103.031326 238.549957,102.314728 240.544632,100.994080 
z"/>
<path fill="#09BFCE" opacity="1.000000" stroke="none" 
	d="
M486.198120,60.769936 
	C491.826569,67.717789 491.185394,73.971741 483.941406,78.812363 
	C476.082336,84.064011 467.824677,88.719086 459.728027,93.642113 
	C462.781586,98.002708 466.067230,98.552711 469.529510,95.276413 
	C471.090515,93.799217 472.388062,92.030487 473.721405,90.328407 
	C476.853882,86.329559 478.799591,86.128517 482.674377,89.494179 
	C488.931702,94.929321 487.624176,105.372284 480.108887,109.984375 
	C473.088470,114.292740 463.110992,112.610008 457.944550,106.179825 
	C456.411224,104.271416 455.054718,102.220909 453.210632,99.674019 
	C451.250793,102.097282 449.631165,104.133072 447.976410,106.139931 
	C442.382568,112.923981 433.519135,114.256485 426.133820,109.437935 
	C419.060760,104.823097 418.352661,97.197380 425.121246,92.119263 
	C431.089661,87.641457 437.701874,84.020355 444.040100,80.037376 
	C447.398865,77.926697 450.779633,75.850937 454.177795,73.742447 
	C450.075623,68.385452 447.011719,68.316429 443.462189,73.255798 
	C441.587341,75.864754 440.454681,79.615814 435.891968,77.416771 
	C432.106506,75.592339 430.389679,71.512589 431.609222,66.826744 
	C434.126068,57.156269 446.640167,53.744114 454.031250,60.859379 
	C456.502899,63.238804 458.446869,66.166374 461.066284,69.375374 
	C467.628387,61.345921 473.813538,51.864559 486.198120,60.769936 
z"/>
<path fill="#09BFCE" opacity="1.000000" stroke="none" 
	d="
M359.382202,108.712196 
	C354.074982,103.691246 352.864258,97.987701 355.363708,91.611443 
	C358.410217,83.839722 364.842194,80.446999 372.610596,80.198936 
	C378.845428,79.999840 385.122833,81.133728 391.590607,81.694229 
	C397.531036,72.059326 397.172852,65.956352 390.319153,64.462616 
	C389.004181,75.128212 382.577118,79.605873 373.517517,76.168121 
	C367.582184,73.915894 366.009277,68.017365 370.386078,63.433907 
	C372.050262,61.691154 374.293610,60.127674 376.566406,59.404064 
	C386.861511,56.126320 397.253082,56.039024 407.375275,60.073311 
	C415.539276,63.327129 418.980164,69.766495 417.250549,78.497559 
	C416.220367,83.697983 414.490448,88.758301 413.121063,93.893875 
	C412.676727,95.560272 412.378204,97.265564 411.813477,99.874779 
	C414.259857,99.090965 415.685730,98.634109 417.110809,98.177521 
	C418.454285,102.933556 416.331451,106.852455 410.750763,109.991730 
	C402.879181,114.419701 393.504242,112.617279 387.015045,105.428337 
	C376.084351,113.491966 368.568817,114.458290 359.382202,108.712196 
M387.169678,95.538429 
	C387.888641,93.561394 388.607574,91.584358 389.405334,89.390541 
	C385.115906,88.144875 381.572845,88.404221 380.046661,92.599258 
	C379.404694,94.363983 380.389587,96.720573 380.634918,98.808113 
	C382.712555,97.962891 384.790192,97.117668 387.169678,95.538429 
z"/>
<path fill="#09BFCE" opacity="1.000000" stroke="none" 
	d="
M522.491577,57.331245 
	C529.500549,58.058552 536.309998,57.989460 542.567078,59.814526 
	C551.799988,62.507580 555.531250,69.989365 553.428894,79.413139 
	C552.308777,84.434128 550.603577,89.322380 549.263489,94.297768 
	C548.827148,95.917618 548.710876,97.623680 548.305847,100.194145 
	C550.602966,99.204224 551.871155,98.657715 553.522461,97.946114 
	C553.727173,98.584549 554.059387,99.142769 554.061646,99.702324 
	C554.081848,104.682526 550.163147,109.164894 543.982178,111.309677 
	C536.126709,114.035507 528.453491,111.781639 523.308105,105.015297 
	C518.662964,109.662834 513.210327,112.431671 506.439331,112.234261 
	C498.446228,112.001213 492.706635,108.088387 490.953186,101.358475 
	C489.131592,94.366867 492.415283,86.833267 498.954803,83.022987 
	C504.736908,79.654022 511.026001,79.651634 517.400024,80.294563 
	C518.390259,80.394440 519.356201,80.754242 520.346191,80.833969 
	C523.026611,81.049828 527.603638,82.117485 528.068909,81.180016 
	C530.007202,77.274353 531.175171,72.800713 531.603760,68.435059 
	C531.748230,66.963684 528.864685,65.195045 526.652405,62.786415 
	C525.194153,74.705200 520.463989,78.930740 511.736145,76.590889 
	C508.959045,75.846367 505.392395,73.114975 504.773621,70.644791 
	C504.160187,68.196106 506.014374,63.644142 508.194641,62.301254 
	C512.273865,59.788750 517.371216,58.929211 522.491577,57.331245 
M521.389404,98.147392 
	C522.879028,95.344986 524.368591,92.542580 526.274780,88.956352 
	C523.386719,88.956352 521.062073,88.279099 520.282654,89.088982 
	C518.298767,91.150505 516.016418,93.755577 515.696167,96.368912 
	C515.327942,99.373810 518.206726,99.672882 521.389404,98.147392 
z"/>
<path fill="#09BFCE" opacity="1.000000" stroke="none" 
	d="
M620.326294,62.971100 
	C621.031250,65.701897 621.937866,68.114861 621.918457,70.520309 
	C621.872620,76.176521 618.559509,80.280563 613.557556,81.583755 
	C608.529419,82.893776 604.956116,81.048866 601.619080,75.817955 
	C600.645874,74.292389 599.005554,73.192406 597.670959,71.897369 
	C596.612793,73.456024 595.140381,74.876877 594.568237,76.597168 
	C592.103943,84.006920 589.973328,91.526955 587.574646,98.959541 
	C586.562683,102.095200 586.352722,104.716515 589.539795,106.834106 
	C590.394226,107.401810 591.253174,109.240082 590.930176,109.979874 
	C590.524963,110.907753 588.912292,111.832855 587.807434,111.848946 
	C577.819031,111.994514 567.826904,112.000938 557.838501,111.860329 
	C556.741089,111.844879 555.660217,110.650810 554.571655,110.003403 
	C555.273926,108.842972 555.931335,107.652321 556.688110,106.528572 
	C558.128601,104.389412 560.199829,102.483612 560.997559,100.137009 
	C564.044983,91.172569 566.870178,82.120110 569.343323,72.982773 
	C569.881653,70.994087 569.214294,68.126564 568.046509,66.362846 
	C566.442383,63.940243 566.473022,62.179764 568.832031,61.028625 
	C575.701904,57.676369 582.981506,55.752396 590.500549,58.224720 
	C592.912109,59.017662 594.749756,61.556210 596.912720,63.348129 
	C605.568481,55.209316 613.269958,54.867260 620.326294,62.971100 
z"/>
<path fill="#040404" opacity="1.000000" stroke="none" 
	d="
M108.465363,94.964294 
	C116.100700,98.445953 122.766357,95.444908 130.610657,93.612877 
	C129.517944,96.372383 128.907761,99.469856 127.251472,101.834633 
	C118.734642,113.994568 96.702980,116.236542 86.402878,105.565361 
	C83.192696,102.239532 80.695168,97.066879 80.195969,92.486320 
	C78.164215,73.843590 91.239838,58.540810 110.083069,57.161976 
	C115.602684,56.758087 121.282303,57.824966 126.814537,58.690872 
	C128.797882,59.001305 130.747025,60.479385 132.392258,61.817421 
	C136.769623,65.377457 138.018021,70.390068 135.888092,74.715034 
	C133.801956,78.951073 128.328735,81.055031 122.925674,79.697914 
	C117.920898,78.440842 115.775383,75.258148 115.861794,69.225479 
	C115.871269,68.564339 115.863075,67.902954 115.863075,66.414062 
	C113.896080,67.397255 112.102737,68.000748 110.650230,69.068069 
	C102.365997,75.155411 101.088287,88.456253 108.465363,94.964294 
z"/>
<path fill="#F5FCFD" opacity="1.000000" stroke="none" 
	d="
M318.054382,100.168152 
	C314.090576,101.460304 310.405762,102.494293 306.720947,103.528282 
	C306.310120,103.075874 305.899261,102.623459 305.488434,102.171051 
	C307.312683,95.931740 308.778229,89.542694 311.267059,83.580818 
	C311.758392,82.403831 316.520416,82.008026 318.701752,82.844925 
	C320.553833,83.555489 322.889801,86.787209 322.608307,88.510857 
	C321.966827,92.438538 319.850433,96.125320 318.054382,100.168152 
z"/>
<path fill="#F3FCFD" opacity="1.000000" stroke="none" 
	d="
M328.506714,65.355042 
	C325.007660,71.231445 322.853241,72.183914 314.253418,71.494949 
	C315.951233,65.450706 317.339752,59.426846 319.523102,53.706352 
	C319.927856,52.645844 323.743591,52.082607 325.607544,52.614025 
	C327.406342,53.126884 329.755402,55.196831 330.002899,56.859558 
	C330.389709,59.458549 329.208679,62.290894 328.506714,65.355042 
z"/>
<path fill="#F7F7F7" opacity="1.000000" stroke="none" 
	d="
M240.315521,101.296104 
	C238.549957,102.314728 237.013519,103.031326 235.477081,103.747925 
	C234.965195,102.109024 233.667999,100.241753 234.067535,98.867920 
	C236.880676,89.194656 239.885574,79.567093 243.253403,70.075447 
	C243.795578,68.547417 246.453049,67.769928 248.132690,66.645493 
	C248.751419,68.515114 250.295303,70.657310 249.837875,72.209862 
	C246.989365,81.878029 243.692719,91.414169 240.315521,101.296104 
z"/>
<path fill="#F0FBFC" opacity="1.000000" stroke="none" 
	d="
M387.018738,95.905434 
	C384.790192,97.117668 382.712555,97.962891 380.634918,98.808105 
	C380.389587,96.720573 379.404694,94.363983 380.046661,92.599258 
	C381.572845,88.404221 385.115906,88.144875 389.405334,89.390541 
	C388.607574,91.584358 387.888641,93.561394 387.018738,95.905434 
z"/>
<path fill="#F5FCFD" opacity="1.000000" stroke="none" 
	d="
M521.074341,98.385361 
	C518.206726,99.672882 515.327942,99.373810 515.696167,96.368912 
	C516.016418,93.755577 518.298767,91.150505 520.282654,89.088982 
	C521.062073,88.279099 523.386719,88.956352 526.274780,88.956352 
	C524.368591,92.542580 522.879028,95.344986 521.074341,98.385361 
z"/>
</svg>